<svg width="25" height="26" viewBox="0 0 25 26" fill="none" xmlns="http://www.w3.org/2000/svg">
<path d="M23.2143 0.0135498H1.78013C0.797991 0.0135498 0 0.824261 0 1.81948V23.2558C0 24.251 0.797991 25.0617 1.78013 25.0617H23.2143C24.1964 25.0617 25 24.251 25 23.2558V1.81948C25 0.824261 24.1964 0.0135498 23.2143 0.0135498ZM7.5558 21.4834H3.85045V9.52962H7.56138V21.4834H7.5558ZM5.70312 7.89701C4.51451 7.89701 3.55469 6.92975 3.55469 5.74444C3.55469 4.55912 4.51451 3.59186 5.70312 3.59186C6.88616 3.59186 7.85156 4.55912 7.85156 5.74444C7.85156 6.93534 6.89174 7.89701 5.70312 7.89701ZM21.4453 21.4834H17.74V15.6687C17.74 14.2821 17.7121 12.4985 15.8147 12.4985C13.8839 12.4985 13.5882 14.0081 13.5882 15.568V21.4834H9.88281V9.52962H13.4375V11.1622H13.4877C13.9844 10.2229 15.1953 9.23329 16.9978 9.23329C20.7478 9.23329 21.4453 11.7101 21.4453 14.9306V21.4834Z" fill="#1B1426"/>
</svg>
