<svg width="25" height="26" viewBox="0 0 25 26" fill="none" xmlns="http://www.w3.org/2000/svg">
<path d="M12.5028 6.1156C8.95566 6.1156 6.09453 8.98288 6.09453 12.5376C6.09453 16.0924 8.95566 18.9597 12.5028 18.9597C16.0499 18.9597 18.911 16.0924 18.911 12.5376C18.911 8.98288 16.0499 6.1156 12.5028 6.1156ZM12.5028 16.7128C10.2105 16.7128 8.33659 14.8404 8.33659 12.5376C8.33659 10.2349 10.205 8.36247 12.5028 8.36247C14.8006 8.36247 16.669 10.2349 16.669 12.5376C16.669 14.8404 14.795 16.7128 12.5028 16.7128ZM20.6679 5.85291C20.6679 6.6857 19.9986 7.35082 19.1732 7.35082C18.3422 7.35082 17.6785 6.68011 17.6785 5.85291C17.6785 5.0257 18.3477 4.35499 19.1732 4.35499C19.9986 4.35499 20.6679 5.0257 20.6679 5.85291ZM24.9122 7.37318C24.8173 5.36664 24.36 3.58926 22.8932 2.12488C21.432 0.660504 19.6584 0.202187 17.6562 0.10158C15.5926 -0.0157937 9.40742 -0.0157937 7.34384 0.10158C5.34718 0.196597 3.57362 0.654915 2.1068 2.1193C0.639989 3.58368 0.188232 5.36105 0.0878416 7.36759C-0.0292805 9.43561 -0.0292805 15.6341 0.0878416 17.7021C0.182655 19.7086 0.639989 21.486 2.1068 22.9504C3.57362 24.4148 5.34161 24.8731 7.34384 24.9737C9.40742 25.0911 15.5926 25.0911 17.6562 24.9737C19.6584 24.8787 21.432 24.4204 22.8932 22.9504C24.3544 21.486 24.8118 19.7086 24.9122 17.7021C25.0293 15.6341 25.0293 9.4412 24.9122 7.37318ZM22.2462 19.921C21.8112 21.0165 20.969 21.8605 19.8703 22.302C18.225 22.956 14.321 22.8051 12.5028 22.8051C10.6846 22.8051 6.77496 22.9504 5.13525 22.302C4.04211 21.8661 3.19994 21.0221 2.75934 19.921C2.1068 18.2722 2.25739 14.3597 2.25739 12.5376C2.25739 10.7155 2.11238 6.79749 2.75934 5.15425C3.19437 4.05876 4.03653 3.21479 5.13525 2.77324C6.78054 2.1193 10.6846 2.2702 12.5028 2.2702C14.321 2.2702 18.2306 2.12488 19.8703 2.77324C20.9635 3.2092 21.8056 4.05317 22.2462 5.15425C22.8988 6.80308 22.7482 10.7155 22.7482 12.5376C22.7482 14.3597 22.8988 18.2778 22.2462 19.921Z" fill="#1B1426"/>
</svg>
